<svg xmlns="http://www.w3.org/2000/svg" xmlns:xlink="http://www.w3.org/1999/xlink" width="300" zoomAndPan="magnify" viewBox="0 0 224.87999 74.999997" height="100" preserveAspectRatio="xMidYMid meet" version="1.0"><defs><g/><clipPath id="b44645810b"><path d="M 47 12.652344 L 56 12.652344 L 56 58 L 47 58 Z M 47 12.652344 " clip-rule="nonzero"/></clipPath><clipPath id="3b28ed1cf1"><path d="M 3.8125 12.652344 L 57 12.652344 L 57 62.125 L 3.8125 62.125 Z M 3.8125 12.652344 " clip-rule="nonzero"/></clipPath></defs><path fill="#ffffff" d="M 38.214844 47.429688 L 38.214844 23.519531 L 45.761719 23.519531 L 45.761719 50.988281 C 43.28125 49.617188 40.71875 48.4375 38.214844 47.429688 Z M 38.214844 47.429688 " fill-opacity="1" fill-rule="nonzero"/><g clip-path="url(#b44645810b)"><path fill="#ffffff" d="M 47.574219 52.039062 L 47.574219 12.6875 L 55.125 12.6875 L 55.125 57.808594 C 52.898438 55.609375 50.3125 53.695312 47.574219 52.039062 Z M 47.574219 52.039062 " fill-opacity="1" fill-rule="nonzero"/></g><path fill="#ffffff" d="M 28.855469 44.28125 L 28.855469 34.347656 L 36.402344 34.347656 L 36.402344 46.730469 C 33.710938 45.722656 31.132812 44.917969 28.855469 44.28125 Z M 28.855469 44.28125 " fill-opacity="1" fill-rule="nonzero"/><g clip-path="url(#3b28ed1cf1)"><path fill="#737373" d="M 9.054688 53.273438 L 14.652344 27.050781 L 21.152344 27.050781 L 13.867188 49.496094 C 13.867188 49.496094 43.023438 49.621094 56.671875 62.3125 C 46.359375 48.273438 19.855469 44.078125 19.855469 44.078125 L 28.175781 17.476562 C 28.175781 17.476562 38.214844 18.578125 45.761719 20.417969 C 37.75 15.4375 25.816406 12.6875 25.816406 12.6875 L 22.222656 23.75 C 15.335938 23.359375 10.859375 23.519531 10.859375 23.519531 L 3.8125 59.292969 C 3.8125 59.292969 35.058594 53.273438 52.253906 61.304688 C 37.871094 50.925781 9.054688 53.273438 9.054688 53.273438 Z M 9.054688 53.273438 " fill-opacity="1" fill-rule="nonzero"/></g><g fill="#ffffff" fill-opacity="1"><g transform="translate(62.271126, 43.672432)"><g><path d="M 5.5625 0.203125 C 4.613281 0.203125 3.820312 0.113281 3.1875 -0.0625 C 2.5625 -0.238281 2.054688 -0.46875 1.671875 -0.75 C 1.296875 -1.03125 1.023438 -1.34375 0.859375 -1.6875 C 0.703125 -2.039062 0.625 -2.390625 0.625 -2.734375 C 0.625 -3.097656 0.691406 -3.398438 0.828125 -3.640625 C 0.960938 -3.890625 1.140625 -4.09375 1.359375 -4.25 C 1.585938 -4.40625 1.84375 -4.519531 2.125 -4.59375 C 2.40625 -4.664062 2.703125 -4.703125 3.015625 -4.703125 C 3.015625 -4.097656 3.082031 -3.566406 3.21875 -3.109375 C 3.363281 -2.648438 3.5625 -2.269531 3.8125 -1.96875 C 4.070312 -1.664062 4.378906 -1.4375 4.734375 -1.28125 C 5.085938 -1.125 5.472656 -1.046875 5.890625 -1.046875 C 6.296875 -1.046875 6.660156 -1.101562 6.984375 -1.21875 C 7.304688 -1.332031 7.582031 -1.492188 7.8125 -1.703125 C 8.039062 -1.910156 8.210938 -2.148438 8.328125 -2.421875 C 8.441406 -2.703125 8.5 -3.003906 8.5 -3.328125 C 8.5 -3.679688 8.425781 -4 8.28125 -4.28125 C 8.132812 -4.5625 7.914062 -4.816406 7.625 -5.046875 C 7.332031 -5.285156 6.96875 -5.507812 6.53125 -5.71875 C 6.09375 -5.9375 5.578125 -6.171875 4.984375 -6.421875 C 4.253906 -6.722656 3.632812 -7.03125 3.125 -7.34375 C 2.625 -7.664062 2.21875 -8.007812 1.90625 -8.375 C 1.601562 -8.75 1.382812 -9.148438 1.25 -9.578125 C 1.113281 -10.015625 1.046875 -10.488281 1.046875 -11 C 1.046875 -11.644531 1.175781 -12.226562 1.4375 -12.75 C 1.695312 -13.269531 2.054688 -13.710938 2.515625 -14.078125 C 2.972656 -14.453125 3.515625 -14.738281 4.140625 -14.9375 C 4.773438 -15.132812 5.460938 -15.234375 6.203125 -15.234375 C 6.984375 -15.234375 7.648438 -15.171875 8.203125 -15.046875 C 8.765625 -14.921875 9.226562 -14.75 9.59375 -14.53125 C 9.96875 -14.3125 10.242188 -14.050781 10.421875 -13.75 C 10.597656 -13.457031 10.6875 -13.140625 10.6875 -12.796875 C 10.6875 -12.546875 10.632812 -12.3125 10.53125 -12.09375 C 10.425781 -11.882812 10.265625 -11.703125 10.046875 -11.546875 C 9.828125 -11.390625 9.554688 -11.265625 9.234375 -11.171875 C 8.910156 -11.085938 8.53125 -11.046875 8.09375 -11.046875 C 8.09375 -11.335938 8.050781 -11.648438 7.96875 -11.984375 C 7.894531 -12.328125 7.769531 -12.644531 7.59375 -12.9375 C 7.414062 -13.226562 7.179688 -13.46875 6.890625 -13.65625 C 6.609375 -13.851562 6.269531 -13.953125 5.875 -13.953125 C 5.59375 -13.953125 5.320312 -13.910156 5.0625 -13.828125 C 4.8125 -13.742188 4.59375 -13.617188 4.40625 -13.453125 C 4.21875 -13.296875 4.066406 -13.09375 3.953125 -12.84375 C 3.847656 -12.601562 3.796875 -12.328125 3.796875 -12.015625 C 3.796875 -11.722656 3.84375 -11.445312 3.9375 -11.1875 C 4.03125 -10.925781 4.203125 -10.671875 4.453125 -10.421875 C 4.710938 -10.171875 5.066406 -9.921875 5.515625 -9.671875 C 5.972656 -9.421875 6.554688 -9.148438 7.265625 -8.859375 C 7.984375 -8.566406 8.59375 -8.265625 9.09375 -7.953125 C 9.601562 -7.640625 10.019531 -7.304688 10.34375 -6.953125 C 10.675781 -6.609375 10.914062 -6.222656 11.0625 -5.796875 C 11.207031 -5.378906 11.28125 -4.914062 11.28125 -4.40625 C 11.28125 -3.71875 11.144531 -3.09375 10.875 -2.53125 C 10.613281 -1.96875 10.234375 -1.484375 9.734375 -1.078125 C 9.234375 -0.671875 8.628906 -0.351562 7.921875 -0.125 C 7.222656 0.09375 6.4375 0.203125 5.5625 0.203125 Z M 5.5625 0.203125 "/></g></g></g><g fill="#ffffff" fill-opacity="1"><g transform="translate(74.600828, 43.672432)"><g><path d="M 12.796875 -10.5625 C 12.796875 -9.9375 12.6875 -9.332031 12.46875 -8.75 C 12.25 -8.164062 11.890625 -7.648438 11.390625 -7.203125 C 10.898438 -6.753906 10.257812 -6.398438 9.46875 -6.140625 C 8.6875 -5.878906 7.726562 -5.75 6.59375 -5.75 L 5.875 -5.75 L 5.875 -2.375 C 5.875 -2.101562 5.898438 -1.878906 5.953125 -1.703125 C 6.015625 -1.535156 6.097656 -1.410156 6.203125 -1.328125 C 6.304688 -1.242188 6.425781 -1.1875 6.5625 -1.15625 C 6.695312 -1.132812 6.835938 -1.125 6.984375 -1.125 L 8.265625 -1.125 L 8.265625 0 L 0.578125 0 L 0.578125 -1.125 L 1.46875 -1.125 C 1.625 -1.125 1.765625 -1.140625 1.890625 -1.171875 C 2.023438 -1.203125 2.140625 -1.265625 2.234375 -1.359375 C 2.335938 -1.453125 2.414062 -1.585938 2.46875 -1.765625 C 2.519531 -1.941406 2.546875 -2.179688 2.546875 -2.484375 L 2.546875 -12.625 C 2.546875 -12.90625 2.519531 -13.128906 2.46875 -13.296875 C 2.414062 -13.472656 2.335938 -13.601562 2.234375 -13.6875 C 2.140625 -13.78125 2.023438 -13.84375 1.890625 -13.875 C 1.765625 -13.90625 1.625 -13.921875 1.46875 -13.921875 L 0.578125 -13.921875 L 0.578125 -15.03125 L 7.046875 -15.03125 C 8.023438 -15.03125 8.875 -14.925781 9.59375 -14.71875 C 10.3125 -14.507812 10.90625 -14.210938 11.375 -13.828125 C 11.851562 -13.441406 12.207031 -12.972656 12.4375 -12.421875 C 12.675781 -11.878906 12.796875 -11.257812 12.796875 -10.5625 Z M 5.875 -6.96875 L 6.375 -6.96875 C 6.894531 -6.96875 7.335938 -7.03125 7.703125 -7.15625 C 8.066406 -7.289062 8.363281 -7.5 8.59375 -7.78125 C 8.820312 -8.0625 8.988281 -8.421875 9.09375 -8.859375 C 9.207031 -9.304688 9.265625 -9.847656 9.265625 -10.484375 C 9.265625 -11.046875 9.21875 -11.53125 9.125 -11.9375 C 9.03125 -12.351562 8.878906 -12.695312 8.671875 -12.96875 C 8.472656 -13.238281 8.210938 -13.441406 7.890625 -13.578125 C 7.566406 -13.710938 7.164062 -13.78125 6.6875 -13.78125 L 5.875 -13.78125 Z M 5.875 -6.96875 "/></g></g></g><g fill="#ffffff" fill-opacity="1"><g transform="translate(88.029934, 43.672432)"><g><path d="M 5.890625 -1.28125 L 10.109375 -1.28125 C 10.316406 -1.28125 10.492188 -1.316406 10.640625 -1.390625 C 10.796875 -1.472656 10.925781 -1.585938 11.03125 -1.734375 C 11.144531 -1.878906 11.234375 -2.046875 11.296875 -2.234375 C 11.359375 -2.429688 11.410156 -2.648438 11.453125 -2.890625 L 11.609375 -3.875 L 13.078125 -3.875 L 12.921875 0 L 0.578125 0 L 0.578125 -1.125 L 1.46875 -1.125 C 1.625 -1.125 1.765625 -1.132812 1.890625 -1.15625 C 2.023438 -1.1875 2.140625 -1.242188 2.234375 -1.328125 C 2.335938 -1.410156 2.414062 -1.535156 2.46875 -1.703125 C 2.519531 -1.878906 2.546875 -2.101562 2.546875 -2.375 L 2.546875 -12.546875 C 2.546875 -12.847656 2.519531 -13.085938 2.46875 -13.265625 C 2.414062 -13.441406 2.335938 -13.578125 2.234375 -13.671875 C 2.140625 -13.773438 2.023438 -13.84375 1.890625 -13.875 C 1.765625 -13.90625 1.625 -13.921875 1.46875 -13.921875 L 0.578125 -13.921875 L 0.578125 -15.03125 L 12.265625 -15.03125 L 12.359375 -11.15625 L 10.890625 -11.15625 L 10.78125 -12.140625 C 10.726562 -12.660156 10.597656 -13.054688 10.390625 -13.328125 C 10.179688 -13.597656 9.863281 -13.734375 9.4375 -13.734375 L 5.890625 -13.734375 L 5.890625 -8.484375 L 10.890625 -8.484375 L 10.890625 -7.21875 L 5.890625 -7.21875 Z M 5.890625 -1.28125 "/></g></g></g><g fill="#ffffff" fill-opacity="1"><g transform="translate(101.767281, 43.672432)"><g><path d="M 12.328125 0 L 4.125 -11.59375 L 4.125 -2.484375 C 4.125 -2.179688 4.148438 -1.941406 4.203125 -1.765625 C 4.265625 -1.585938 4.34375 -1.453125 4.4375 -1.359375 C 4.53125 -1.265625 4.644531 -1.203125 4.78125 -1.171875 C 4.914062 -1.140625 5.054688 -1.125 5.203125 -1.125 L 6.078125 -1.125 L 6.078125 0 L 0.578125 0 L 0.578125 -1.125 L 1.46875 -1.125 C 1.625 -1.125 1.765625 -1.140625 1.890625 -1.171875 C 2.023438 -1.203125 2.140625 -1.265625 2.234375 -1.359375 C 2.335938 -1.453125 2.414062 -1.585938 2.46875 -1.765625 C 2.519531 -1.941406 2.546875 -2.179688 2.546875 -2.484375 L 2.546875 -12.625 C 2.546875 -12.90625 2.515625 -13.128906 2.453125 -13.296875 C 2.398438 -13.472656 2.320312 -13.601562 2.21875 -13.6875 C 2.125 -13.78125 2.007812 -13.84375 1.875 -13.875 C 1.75 -13.90625 1.613281 -13.921875 1.46875 -13.921875 L 0.578125 -13.921875 L 0.578125 -15.03125 L 5.265625 -15.03125 L 12.6875 -4.515625 L 12.6875 -12.625 C 12.6875 -12.90625 12.65625 -13.128906 12.59375 -13.296875 C 12.539062 -13.472656 12.460938 -13.601562 12.359375 -13.6875 C 12.265625 -13.78125 12.148438 -13.84375 12.015625 -13.875 C 11.890625 -13.90625 11.753906 -13.921875 11.609375 -13.921875 L 10.734375 -13.921875 L 10.734375 -15.03125 L 16.234375 -15.03125 L 16.234375 -13.921875 L 15.34375 -13.921875 C 15.195312 -13.921875 15.054688 -13.90625 14.921875 -13.875 C 14.796875 -13.84375 14.679688 -13.773438 14.578125 -13.671875 C 14.484375 -13.578125 14.410156 -13.441406 14.359375 -13.265625 C 14.304688 -13.085938 14.28125 -12.847656 14.28125 -12.546875 L 14.28125 0 Z M 12.328125 0 "/></g></g></g><g fill="#ffffff" fill-opacity="1"><g transform="translate(118.350731, 43.672432)"><g><path d="M 14.984375 -7.796875 C 14.984375 -6.640625 14.820312 -5.582031 14.5 -4.625 C 14.1875 -3.675781 13.71875 -2.859375 13.09375 -2.171875 C 12.46875 -1.484375 11.691406 -0.945312 10.765625 -0.5625 C 9.835938 -0.1875 8.757812 0 7.53125 0 L 0.578125 0 L 0.578125 -1.125 L 1.46875 -1.125 C 1.625 -1.125 1.765625 -1.140625 1.890625 -1.171875 C 2.023438 -1.203125 2.140625 -1.265625 2.234375 -1.359375 C 2.335938 -1.453125 2.414062 -1.585938 2.46875 -1.765625 C 2.519531 -1.941406 2.546875 -2.179688 2.546875 -2.484375 L 2.546875 -12.625 C 2.546875 -12.90625 2.519531 -13.128906 2.46875 -13.296875 C 2.414062 -13.472656 2.335938 -13.601562 2.234375 -13.6875 C 2.140625 -13.78125 2.023438 -13.84375 1.890625 -13.875 C 1.765625 -13.90625 1.625 -13.921875 1.46875 -13.921875 L 0.578125 -13.921875 L 0.578125 -15.03125 L 7.53125 -15.03125 C 8.695312 -15.03125 9.738281 -14.875 10.65625 -14.5625 C 11.582031 -14.257812 12.363281 -13.804688 13 -13.203125 C 13.644531 -12.597656 14.132812 -11.84375 14.46875 -10.9375 C 14.8125 -10.03125 14.984375 -8.984375 14.984375 -7.796875 Z M 11.421875 -7.796875 C 11.421875 -9.796875 11.050781 -11.285156 10.3125 -12.265625 C 9.582031 -13.242188 8.503906 -13.734375 7.078125 -13.734375 L 5.875 -13.734375 L 5.875 -1.3125 L 7.046875 -1.3125 C 7.765625 -1.3125 8.394531 -1.457031 8.9375 -1.75 C 9.488281 -2.050781 9.945312 -2.484375 10.3125 -3.046875 C 10.6875 -3.609375 10.960938 -4.285156 11.140625 -5.078125 C 11.328125 -5.878906 11.421875 -6.785156 11.421875 -7.796875 Z M 11.421875 -7.796875 "/></g></g></g><g fill="#ffffff" fill-opacity="1"><g transform="translate(134.492371, 43.672432)"><g><path d="M 5.5625 0.203125 C 4.613281 0.203125 3.820312 0.113281 3.1875 -0.0625 C 2.5625 -0.238281 2.054688 -0.46875 1.671875 -0.75 C 1.296875 -1.03125 1.023438 -1.34375 0.859375 -1.6875 C 0.703125 -2.039062 0.625 -2.390625 0.625 -2.734375 C 0.625 -3.097656 0.691406 -3.398438 0.828125 -3.640625 C 0.960938 -3.890625 1.140625 -4.09375 1.359375 -4.25 C 1.585938 -4.40625 1.84375 -4.519531 2.125 -4.59375 C 2.40625 -4.664062 2.703125 -4.703125 3.015625 -4.703125 C 3.015625 -4.097656 3.082031 -3.566406 3.21875 -3.109375 C 3.363281 -2.648438 3.5625 -2.269531 3.8125 -1.96875 C 4.070312 -1.664062 4.378906 -1.4375 4.734375 -1.28125 C 5.085938 -1.125 5.472656 -1.046875 5.890625 -1.046875 C 6.296875 -1.046875 6.660156 -1.101562 6.984375 -1.21875 C 7.304688 -1.332031 7.582031 -1.492188 7.8125 -1.703125 C 8.039062 -1.910156 8.210938 -2.148438 8.328125 -2.421875 C 8.441406 -2.703125 8.5 -3.003906 8.5 -3.328125 C 8.5 -3.679688 8.425781 -4 8.28125 -4.28125 C 8.132812 -4.5625 7.914062 -4.816406 7.625 -5.046875 C 7.332031 -5.285156 6.96875 -5.507812 6.53125 -5.71875 C 6.09375 -5.9375 5.578125 -6.171875 4.984375 -6.421875 C 4.253906 -6.722656 3.632812 -7.03125 3.125 -7.34375 C 2.625 -7.664062 2.21875 -8.007812 1.90625 -8.375 C 1.601562 -8.75 1.382812 -9.148438 1.25 -9.578125 C 1.113281 -10.015625 1.046875 -10.488281 1.046875 -11 C 1.046875 -11.644531 1.175781 -12.226562 1.4375 -12.75 C 1.695312 -13.269531 2.054688 -13.710938 2.515625 -14.078125 C 2.972656 -14.453125 3.515625 -14.738281 4.140625 -14.9375 C 4.773438 -15.132812 5.460938 -15.234375 6.203125 -15.234375 C 6.984375 -15.234375 7.648438 -15.171875 8.203125 -15.046875 C 8.765625 -14.921875 9.226562 -14.75 9.59375 -14.53125 C 9.96875 -14.3125 10.242188 -14.050781 10.421875 -13.75 C 10.597656 -13.457031 10.6875 -13.140625 10.6875 -12.796875 C 10.6875 -12.546875 10.632812 -12.3125 10.53125 -12.09375 C 10.425781 -11.882812 10.265625 -11.703125 10.046875 -11.546875 C 9.828125 -11.390625 9.554688 -11.265625 9.234375 -11.171875 C 8.910156 -11.085938 8.53125 -11.046875 8.09375 -11.046875 C 8.09375 -11.335938 8.050781 -11.648438 7.96875 -11.984375 C 7.894531 -12.328125 7.769531 -12.644531 7.59375 -12.9375 C 7.414062 -13.226562 7.179688 -13.46875 6.890625 -13.65625 C 6.609375 -13.851562 6.269531 -13.953125 5.875 -13.953125 C 5.59375 -13.953125 5.320312 -13.910156 5.0625 -13.828125 C 4.8125 -13.742188 4.59375 -13.617188 4.40625 -13.453125 C 4.21875 -13.296875 4.066406 -13.09375 3.953125 -12.84375 C 3.847656 -12.601562 3.796875 -12.328125 3.796875 -12.015625 C 3.796875 -11.722656 3.84375 -11.445312 3.9375 -11.1875 C 4.03125 -10.925781 4.203125 -10.671875 4.453125 -10.421875 C 4.710938 -10.171875 5.066406 -9.921875 5.515625 -9.671875 C 5.972656 -9.421875 6.554688 -9.148438 7.265625 -8.859375 C 7.984375 -8.566406 8.59375 -8.265625 9.09375 -7.953125 C 9.601562 -7.640625 10.019531 -7.304688 10.34375 -6.953125 C 10.675781 -6.609375 10.914062 -6.222656 11.0625 -5.796875 C 11.207031 -5.378906 11.28125 -4.914062 11.28125 -4.40625 C 11.28125 -3.71875 11.144531 -3.09375 10.875 -2.53125 C 10.613281 -1.96875 10.234375 -1.484375 9.734375 -1.078125 C 9.234375 -0.671875 8.628906 -0.351562 7.921875 -0.125 C 7.222656 0.09375 6.4375 0.203125 5.5625 0.203125 Z M 5.5625 0.203125 "/></g></g></g><g fill="#ffffff" fill-opacity="1"><g transform="translate(146.822074, 43.672432)"><g><path d="M 12.71875 0 L 12.71875 -1.125 L 12.921875 -1.125 C 13.140625 -1.125 13.332031 -1.132812 13.5 -1.15625 C 13.664062 -1.1875 13.800781 -1.242188 13.90625 -1.328125 C 14.019531 -1.410156 14.101562 -1.523438 14.15625 -1.671875 C 14.21875 -1.828125 14.25 -2.035156 14.25 -2.296875 L 14.25 -12.953125 L 10 0 L 8.578125 0 L 4.125 -12.953125 L 4.125 -2.484375 C 4.125 -2.179688 4.160156 -1.941406 4.234375 -1.765625 C 4.304688 -1.585938 4.40625 -1.453125 4.53125 -1.359375 C 4.664062 -1.265625 4.828125 -1.203125 5.015625 -1.171875 C 5.210938 -1.140625 5.4375 -1.125 5.6875 -1.125 L 5.8125 -1.125 L 5.8125 0 L 0.578125 0 L 0.578125 -1.125 L 1.46875 -1.125 C 1.625 -1.125 1.765625 -1.132812 1.890625 -1.15625 C 2.023438 -1.1875 2.140625 -1.242188 2.234375 -1.328125 C 2.335938 -1.410156 2.414062 -1.535156 2.46875 -1.703125 C 2.519531 -1.878906 2.546875 -2.101562 2.546875 -2.375 L 2.546875 -12.625 C 2.546875 -12.90625 2.519531 -13.128906 2.46875 -13.296875 C 2.414062 -13.472656 2.335938 -13.601562 2.234375 -13.6875 C 2.140625 -13.78125 2.023438 -13.84375 1.890625 -13.875 C 1.765625 -13.90625 1.625 -13.921875 1.46875 -13.921875 L 0.578125 -13.921875 L 0.578125 -15.03125 L 6.65625 -15.03125 L 10.140625 -4.859375 L 13.5 -15.03125 L 19.4375 -15.03125 L 19.4375 -13.921875 L 18.5625 -13.921875 C 18.40625 -13.921875 18.257812 -13.90625 18.125 -13.875 C 18 -13.84375 17.890625 -13.773438 17.796875 -13.671875 C 17.703125 -13.578125 17.625 -13.441406 17.5625 -13.265625 C 17.507812 -13.085938 17.484375 -12.847656 17.484375 -12.546875 L 17.484375 -2.484375 C 17.484375 -2.179688 17.507812 -1.941406 17.5625 -1.765625 C 17.625 -1.585938 17.703125 -1.453125 17.796875 -1.359375 C 17.890625 -1.265625 18 -1.203125 18.125 -1.171875 C 18.257812 -1.140625 18.40625 -1.125 18.5625 -1.125 L 19.4375 -1.125 L 19.4375 0 Z M 12.71875 0 "/></g></g></g><g fill="#ffffff" fill-opacity="1"><g transform="translate(166.85784, 43.672432)"><g><path d="M 4.578125 -4.9375 L 3.984375 -3.140625 C 3.921875 -2.960938 3.859375 -2.757812 3.796875 -2.53125 C 3.742188 -2.300781 3.71875 -2.101562 3.71875 -1.9375 C 3.71875 -1.789062 3.742188 -1.664062 3.796875 -1.5625 C 3.859375 -1.46875 3.929688 -1.382812 4.015625 -1.3125 C 4.109375 -1.25 4.207031 -1.203125 4.3125 -1.171875 C 4.425781 -1.140625 4.546875 -1.125 4.671875 -1.125 L 5.5625 -1.125 L 5.5625 0 L 0.078125 0 L 0.078125 -1.125 L 0.34375 -1.125 C 0.519531 -1.125 0.6875 -1.144531 0.84375 -1.1875 C 1 -1.226562 1.144531 -1.300781 1.28125 -1.40625 C 1.414062 -1.519531 1.539062 -1.675781 1.65625 -1.875 C 1.78125 -2.070312 1.90625 -2.332031 2.03125 -2.65625 L 6.59375 -15.03125 L 9.46875 -15.03125 L 13.875 -2.625 C 13.976562 -2.332031 14.082031 -2.085938 14.1875 -1.890625 C 14.300781 -1.703125 14.425781 -1.550781 14.5625 -1.4375 C 14.695312 -1.320312 14.835938 -1.238281 14.984375 -1.1875 C 15.140625 -1.144531 15.300781 -1.125 15.46875 -1.125 L 15.84375 -1.125 L 15.84375 0 L 8.90625 0 L 8.90625 -1.125 L 9.71875 -1.125 C 9.820312 -1.125 9.925781 -1.140625 10.03125 -1.171875 C 10.144531 -1.203125 10.242188 -1.25 10.328125 -1.3125 C 10.421875 -1.375 10.492188 -1.457031 10.546875 -1.5625 C 10.597656 -1.664062 10.625 -1.789062 10.625 -1.9375 C 10.625 -2.101562 10.601562 -2.265625 10.5625 -2.421875 C 10.519531 -2.578125 10.476562 -2.71875 10.4375 -2.84375 L 9.703125 -4.9375 Z M 8.171875 -9.6875 C 8.097656 -9.925781 8.019531 -10.175781 7.9375 -10.4375 C 7.863281 -10.695312 7.785156 -10.960938 7.703125 -11.234375 C 7.617188 -11.515625 7.539062 -11.789062 7.46875 -12.0625 C 7.40625 -12.332031 7.34375 -12.585938 7.28125 -12.828125 C 7.21875 -12.617188 7.144531 -12.382812 7.0625 -12.125 C 6.988281 -11.875 6.90625 -11.613281 6.8125 -11.34375 C 6.71875 -11.082031 6.625 -10.816406 6.53125 -10.546875 C 6.4375 -10.285156 6.347656 -10.03125 6.265625 -9.78125 L 5.03125 -6.234375 L 9.28125 -6.234375 Z M 8.171875 -9.6875 "/></g></g></g><g fill="#ffffff" fill-opacity="1"><g transform="translate(182.701507, 43.672432)"><g><path d="M 0.578125 -1.125 L 1.46875 -1.125 C 1.613281 -1.125 1.75 -1.132812 1.875 -1.15625 C 2.007812 -1.1875 2.125 -1.242188 2.21875 -1.328125 C 2.320312 -1.410156 2.398438 -1.535156 2.453125 -1.703125 C 2.515625 -1.878906 2.546875 -2.101562 2.546875 -2.375 L 2.546875 -12.625 C 2.546875 -12.90625 2.515625 -13.128906 2.453125 -13.296875 C 2.398438 -13.472656 2.320312 -13.601562 2.21875 -13.6875 C 2.125 -13.78125 2.007812 -13.84375 1.875 -13.875 C 1.75 -13.90625 1.613281 -13.921875 1.46875 -13.921875 L 0.578125 -13.921875 L 0.578125 -15.03125 L 7.375 -15.03125 C 9.351562 -15.03125 10.804688 -14.695312 11.734375 -14.03125 C 12.671875 -13.363281 13.140625 -12.394531 13.140625 -11.125 C 13.140625 -10.570312 13.054688 -10.078125 12.890625 -9.640625 C 12.722656 -9.210938 12.503906 -8.835938 12.234375 -8.515625 C 11.960938 -8.191406 11.65625 -7.921875 11.3125 -7.703125 C 10.96875 -7.484375 10.617188 -7.300781 10.265625 -7.15625 L 12.78125 -2.84375 C 12.957031 -2.539062 13.128906 -2.28125 13.296875 -2.0625 C 13.460938 -1.84375 13.628906 -1.660156 13.796875 -1.515625 C 13.960938 -1.378906 14.132812 -1.28125 14.3125 -1.21875 C 14.488281 -1.15625 14.675781 -1.125 14.875 -1.125 L 14.96875 -1.125 L 14.96875 0 L 14.28125 0 C 13.644531 0 13.09375 -0.0195312 12.625 -0.0625 C 12.15625 -0.113281 11.742188 -0.207031 11.390625 -0.34375 C 11.035156 -0.488281 10.726562 -0.6875 10.46875 -0.9375 C 10.21875 -1.1875 9.984375 -1.503906 9.765625 -1.890625 L 7.265625 -6.53125 L 5.875 -6.53125 L 5.875 -2.375 C 5.875 -2.101562 5.898438 -1.878906 5.953125 -1.703125 C 6.015625 -1.535156 6.09375 -1.410156 6.1875 -1.328125 C 6.289062 -1.242188 6.40625 -1.1875 6.53125 -1.15625 C 6.664062 -1.132812 6.804688 -1.125 6.953125 -1.125 L 7.84375 -1.125 L 7.84375 0 L 0.578125 0 Z M 5.875 -7.75 L 7.046875 -7.75 C 7.535156 -7.75 7.941406 -7.8125 8.265625 -7.9375 C 8.585938 -8.070312 8.847656 -8.265625 9.046875 -8.515625 C 9.242188 -8.773438 9.382812 -9.097656 9.46875 -9.484375 C 9.550781 -9.878906 9.59375 -10.332031 9.59375 -10.84375 C 9.59375 -11.375 9.546875 -11.820312 9.453125 -12.1875 C 9.359375 -12.5625 9.207031 -12.867188 9 -13.109375 C 8.789062 -13.347656 8.519531 -13.519531 8.1875 -13.625 C 7.863281 -13.726562 7.472656 -13.78125 7.015625 -13.78125 L 5.875 -13.78125 Z M 5.875 -7.75 "/></g></g></g><g fill="#ffffff" fill-opacity="1"><g transform="translate(197.579348, 43.672432)"><g><path d="M 8.546875 -2.484375 C 8.546875 -2.179688 8.570312 -1.941406 8.625 -1.765625 C 8.675781 -1.585938 8.75 -1.453125 8.84375 -1.359375 C 8.945312 -1.265625 9.0625 -1.203125 9.1875 -1.171875 C 9.320312 -1.140625 9.46875 -1.125 9.625 -1.125 L 10.5 -1.125 L 10.5 0 L 3.234375 0 L 3.234375 -1.125 L 4.125 -1.125 C 4.28125 -1.125 4.421875 -1.140625 4.546875 -1.171875 C 4.679688 -1.203125 4.796875 -1.265625 4.890625 -1.359375 C 4.984375 -1.453125 5.054688 -1.585938 5.109375 -1.765625 C 5.171875 -1.941406 5.203125 -2.179688 5.203125 -2.484375 L 5.203125 -13.734375 L 3.515625 -13.734375 C 3.203125 -13.734375 2.9375 -13.695312 2.71875 -13.625 C 2.507812 -13.5625 2.335938 -13.46875 2.203125 -13.34375 C 2.066406 -13.21875 1.96875 -13.0625 1.90625 -12.875 C 1.84375 -12.6875 1.796875 -12.476562 1.765625 -12.25 L 1.625 -10.9375 L 0.203125 -10.9375 L 0.3125 -15.03125 L 13.4375 -15.03125 L 13.53125 -10.9375 L 12.125 -10.9375 L 11.96875 -12.25 C 11.945312 -12.476562 11.898438 -12.6875 11.828125 -12.875 C 11.765625 -13.0625 11.664062 -13.21875 11.53125 -13.34375 C 11.394531 -13.46875 11.222656 -13.5625 11.015625 -13.625 C 10.804688 -13.695312 10.539062 -13.734375 10.21875 -13.734375 L 8.546875 -13.734375 Z M 8.546875 -2.484375 "/></g></g></g><g fill="#737373" fill-opacity="1"><g transform="translate(62.879129, 54.096197)"><g><path d="M 1.859375 -0.40625 L 3.1875 -0.40625 C 3.25 -0.40625 3.304688 -0.414062 3.359375 -0.4375 C 3.410156 -0.46875 3.453125 -0.503906 3.484375 -0.546875 C 3.515625 -0.585938 3.539062 -0.640625 3.5625 -0.703125 C 3.582031 -0.765625 3.597656 -0.832031 3.609375 -0.90625 L 3.65625 -1.21875 L 4.125 -1.21875 L 4.078125 0 L 0.1875 0 L 0.1875 -0.359375 L 0.46875 -0.359375 C 0.507812 -0.359375 0.550781 -0.359375 0.59375 -0.359375 C 0.632812 -0.367188 0.671875 -0.382812 0.703125 -0.40625 C 0.734375 -0.4375 0.753906 -0.476562 0.765625 -0.53125 C 0.785156 -0.59375 0.796875 -0.664062 0.796875 -0.75 L 0.796875 -3.953125 C 0.796875 -4.054688 0.785156 -4.132812 0.765625 -4.1875 C 0.753906 -4.238281 0.734375 -4.28125 0.703125 -4.3125 C 0.671875 -4.34375 0.632812 -4.363281 0.59375 -4.375 C 0.550781 -4.382812 0.507812 -4.390625 0.46875 -4.390625 L 0.1875 -4.390625 L 0.1875 -4.734375 L 3.875 -4.734375 L 3.890625 -3.515625 L 3.4375 -3.515625 L 3.40625 -3.828125 C 3.382812 -3.992188 3.34375 -4.117188 3.28125 -4.203125 C 3.21875 -4.285156 3.117188 -4.328125 2.984375 -4.328125 L 1.859375 -4.328125 L 1.859375 -2.671875 L 3.4375 -2.671875 L 3.4375 -2.28125 L 1.859375 -2.28125 Z M 1.859375 -0.40625 "/></g></g></g><g fill="#737373" fill-opacity="1"><g transform="translate(68.63479, 54.096197)"><g><path d="M 3.46875 -4.203125 C 3.46875 -4.234375 3.457031 -4.257812 3.4375 -4.28125 C 3.425781 -4.3125 3.398438 -4.332031 3.359375 -4.34375 C 3.328125 -4.363281 3.285156 -4.375 3.234375 -4.375 C 3.191406 -4.382812 3.144531 -4.390625 3.09375 -4.390625 L 3.078125 -4.390625 L 3.078125 -4.734375 L 4.640625 -4.734375 L 4.640625 -4.390625 L 4.578125 -4.390625 C 4.515625 -4.390625 4.457031 -4.378906 4.40625 -4.359375 C 4.351562 -4.347656 4.300781 -4.320312 4.25 -4.28125 C 4.195312 -4.25 4.144531 -4.203125 4.09375 -4.140625 C 4.039062 -4.078125 3.984375 -4 3.921875 -3.90625 L 2.953125 -2.59375 L 4.171875 -0.703125 C 4.265625 -0.566406 4.351562 -0.472656 4.4375 -0.421875 C 4.53125 -0.378906 4.617188 -0.359375 4.703125 -0.359375 L 4.796875 -0.359375 L 4.796875 0 L 2.609375 0 L 2.609375 -0.359375 L 2.640625 -0.359375 C 2.898438 -0.359375 3.03125 -0.429688 3.03125 -0.578125 C 3.03125 -0.597656 3.023438 -0.617188 3.015625 -0.640625 C 3.015625 -0.671875 3.003906 -0.703125 2.984375 -0.734375 C 2.972656 -0.765625 2.953125 -0.800781 2.921875 -0.84375 C 2.898438 -0.894531 2.863281 -0.957031 2.8125 -1.03125 L 2.203125 -1.953125 L 1.484375 -0.984375 C 1.441406 -0.921875 1.398438 -0.851562 1.359375 -0.78125 C 1.328125 -0.71875 1.3125 -0.648438 1.3125 -0.578125 C 1.3125 -0.503906 1.34375 -0.445312 1.40625 -0.40625 C 1.46875 -0.375 1.570312 -0.359375 1.71875 -0.359375 L 1.734375 -0.359375 L 1.734375 0 L 0.0625 0 L 0.0625 -0.359375 L 0.109375 -0.359375 C 0.191406 -0.359375 0.257812 -0.367188 0.3125 -0.390625 C 0.375 -0.410156 0.429688 -0.4375 0.484375 -0.46875 C 0.535156 -0.507812 0.585938 -0.554688 0.640625 -0.609375 C 0.691406 -0.671875 0.742188 -0.738281 0.796875 -0.8125 L 1.953125 -2.328125 L 0.859375 -4.03125 C 0.828125 -4.09375 0.789062 -4.144531 0.75 -4.1875 C 0.71875 -4.226562 0.675781 -4.265625 0.625 -4.296875 C 0.582031 -4.328125 0.535156 -4.347656 0.484375 -4.359375 C 0.429688 -4.378906 0.367188 -4.390625 0.296875 -4.390625 L 0.203125 -4.390625 L 0.203125 -4.734375 L 2.40625 -4.734375 L 2.40625 -4.390625 L 2.390625 -4.390625 C 2.304688 -4.390625 2.238281 -4.382812 2.1875 -4.375 C 2.144531 -4.363281 2.109375 -4.347656 2.078125 -4.328125 C 2.046875 -4.316406 2.019531 -4.296875 2 -4.265625 C 1.988281 -4.242188 1.984375 -4.222656 1.984375 -4.203125 C 1.984375 -4.148438 2 -4.085938 2.03125 -4.015625 C 2.070312 -3.953125 2.117188 -3.882812 2.171875 -3.8125 L 2.71875 -2.984375 L 3.296875 -3.796875 C 3.335938 -3.847656 3.375 -3.910156 3.40625 -3.984375 C 3.445312 -4.066406 3.46875 -4.140625 3.46875 -4.203125 Z M 3.46875 -4.203125 "/></g></g></g><g fill="#737373" fill-opacity="1"><g transform="translate(74.916283, 54.096197)"><g><path d="M 4.03125 -3.328125 C 4.03125 -3.128906 3.992188 -2.9375 3.921875 -2.75 C 3.859375 -2.570312 3.75 -2.410156 3.59375 -2.265625 C 3.4375 -2.128906 3.234375 -2.019531 2.984375 -1.9375 C 2.734375 -1.851562 2.429688 -1.8125 2.078125 -1.8125 L 1.84375 -1.8125 L 1.84375 -0.75 C 1.84375 -0.664062 1.851562 -0.59375 1.875 -0.53125 C 1.894531 -0.476562 1.921875 -0.4375 1.953125 -0.40625 C 1.984375 -0.382812 2.019531 -0.367188 2.0625 -0.359375 C 2.113281 -0.359375 2.160156 -0.359375 2.203125 -0.359375 L 2.609375 -0.359375 L 2.609375 0 L 0.1875 0 L 0.1875 -0.359375 L 0.46875 -0.359375 C 0.507812 -0.359375 0.550781 -0.359375 0.59375 -0.359375 C 0.632812 -0.367188 0.671875 -0.390625 0.703125 -0.421875 C 0.734375 -0.453125 0.753906 -0.492188 0.765625 -0.546875 C 0.785156 -0.609375 0.796875 -0.6875 0.796875 -0.78125 L 0.796875 -3.984375 C 0.796875 -4.078125 0.785156 -4.148438 0.765625 -4.203125 C 0.753906 -4.253906 0.734375 -4.289062 0.703125 -4.3125 C 0.671875 -4.34375 0.632812 -4.363281 0.59375 -4.375 C 0.550781 -4.382812 0.507812 -4.390625 0.46875 -4.390625 L 0.1875 -4.390625 L 0.1875 -4.734375 L 2.21875 -4.734375 C 2.53125 -4.734375 2.796875 -4.703125 3.015625 -4.640625 C 3.242188 -4.578125 3.429688 -4.484375 3.578125 -4.359375 C 3.734375 -4.234375 3.847656 -4.082031 3.921875 -3.90625 C 3.992188 -3.738281 4.03125 -3.546875 4.03125 -3.328125 Z M 1.84375 -2.203125 L 2.015625 -2.203125 C 2.179688 -2.203125 2.320312 -2.222656 2.4375 -2.265625 C 2.550781 -2.304688 2.644531 -2.367188 2.71875 -2.453125 C 2.789062 -2.546875 2.84375 -2.660156 2.875 -2.796875 C 2.90625 -2.941406 2.921875 -3.113281 2.921875 -3.3125 C 2.921875 -3.488281 2.90625 -3.640625 2.875 -3.765625 C 2.84375 -3.898438 2.796875 -4.007812 2.734375 -4.09375 C 2.671875 -4.175781 2.585938 -4.238281 2.484375 -4.28125 C 2.378906 -4.320312 2.253906 -4.34375 2.109375 -4.34375 L 1.84375 -4.34375 Z M 1.84375 -2.203125 "/></g></g></g><g fill="#737373" fill-opacity="1"><g transform="translate(80.574567, 54.096197)"><g><path d="M 1.859375 -0.40625 L 3.1875 -0.40625 C 3.25 -0.40625 3.304688 -0.414062 3.359375 -0.4375 C 3.410156 -0.46875 3.453125 -0.503906 3.484375 -0.546875 C 3.515625 -0.585938 3.539062 -0.640625 3.5625 -0.703125 C 3.582031 -0.765625 3.597656 -0.832031 3.609375 -0.90625 L 3.65625 -1.21875 L 4.125 -1.21875 L 4.078125 0 L 0.1875 0 L 0.1875 -0.359375 L 0.46875 -0.359375 C 0.507812 -0.359375 0.550781 -0.359375 0.59375 -0.359375 C 0.632812 -0.367188 0.671875 -0.382812 0.703125 -0.40625 C 0.734375 -0.4375 0.753906 -0.476562 0.765625 -0.53125 C 0.785156 -0.59375 0.796875 -0.664062 0.796875 -0.75 L 0.796875 -3.953125 C 0.796875 -4.054688 0.785156 -4.132812 0.765625 -4.1875 C 0.753906 -4.238281 0.734375 -4.28125 0.703125 -4.3125 C 0.671875 -4.34375 0.632812 -4.363281 0.59375 -4.375 C 0.550781 -4.382812 0.507812 -4.390625 0.46875 -4.390625 L 0.1875 -4.390625 L 0.1875 -4.734375 L 3.875 -4.734375 L 3.890625 -3.515625 L 3.4375 -3.515625 L 3.40625 -3.828125 C 3.382812 -3.992188 3.34375 -4.117188 3.28125 -4.203125 C 3.21875 -4.285156 3.117188 -4.328125 2.984375 -4.328125 L 1.859375 -4.328125 L 1.859375 -2.671875 L 3.4375 -2.671875 L 3.4375 -2.28125 L 1.859375 -2.28125 Z M 1.859375 -0.40625 "/></g></g></g><g fill="#737373" fill-opacity="1"><g transform="translate(86.330228, 54.096197)"><g><path d="M 3.890625 0 L 1.296875 -3.65625 L 1.296875 -0.78125 C 1.296875 -0.6875 1.304688 -0.609375 1.328125 -0.546875 C 1.347656 -0.492188 1.375 -0.453125 1.40625 -0.421875 C 1.4375 -0.390625 1.472656 -0.367188 1.515625 -0.359375 C 1.554688 -0.359375 1.597656 -0.359375 1.640625 -0.359375 L 1.921875 -0.359375 L 1.921875 0 L 0.1875 0 L 0.1875 -0.359375 L 0.46875 -0.359375 C 0.507812 -0.359375 0.550781 -0.359375 0.59375 -0.359375 C 0.632812 -0.367188 0.671875 -0.390625 0.703125 -0.421875 C 0.734375 -0.453125 0.753906 -0.492188 0.765625 -0.546875 C 0.785156 -0.609375 0.796875 -0.6875 0.796875 -0.78125 L 0.796875 -3.984375 C 0.796875 -4.078125 0.785156 -4.148438 0.765625 -4.203125 C 0.753906 -4.253906 0.734375 -4.289062 0.703125 -4.3125 C 0.671875 -4.34375 0.632812 -4.363281 0.59375 -4.375 C 0.550781 -4.382812 0.507812 -4.390625 0.46875 -4.390625 L 0.1875 -4.390625 L 0.1875 -4.734375 L 1.65625 -4.734375 L 4 -1.421875 L 4 -3.984375 C 4 -4.078125 3.988281 -4.148438 3.96875 -4.203125 C 3.957031 -4.253906 3.9375 -4.289062 3.90625 -4.3125 C 3.875 -4.34375 3.835938 -4.363281 3.796875 -4.375 C 3.753906 -4.382812 3.707031 -4.390625 3.65625 -4.390625 L 3.390625 -4.390625 L 3.390625 -4.734375 L 5.125 -4.734375 L 5.125 -4.390625 L 4.84375 -4.390625 C 4.789062 -4.390625 4.742188 -4.382812 4.703125 -4.375 C 4.671875 -4.363281 4.640625 -4.34375 4.609375 -4.3125 C 4.578125 -4.28125 4.550781 -4.238281 4.53125 -4.1875 C 4.507812 -4.132812 4.5 -4.054688 4.5 -3.953125 L 4.5 0 Z M 3.890625 0 "/></g></g></g><g fill="#737373" fill-opacity="1"><g transform="translate(92.984996, 54.096197)"><g><path d="M 1.75 0.0625 C 1.457031 0.0625 1.207031 0.0351562 1 -0.015625 C 0.800781 -0.078125 0.640625 -0.148438 0.515625 -0.234375 C 0.398438 -0.328125 0.316406 -0.425781 0.265625 -0.53125 C 0.222656 -0.644531 0.203125 -0.753906 0.203125 -0.859375 C 0.203125 -0.972656 0.222656 -1.066406 0.265625 -1.140625 C 0.304688 -1.222656 0.359375 -1.289062 0.421875 -1.34375 C 0.492188 -1.394531 0.570312 -1.429688 0.65625 -1.453125 C 0.75 -1.472656 0.847656 -1.484375 0.953125 -1.484375 C 0.953125 -1.296875 0.972656 -1.128906 1.015625 -0.984375 C 1.066406 -0.835938 1.128906 -0.71875 1.203125 -0.625 C 1.285156 -0.53125 1.378906 -0.457031 1.484375 -0.40625 C 1.597656 -0.351562 1.722656 -0.328125 1.859375 -0.328125 C 1.984375 -0.328125 2.097656 -0.34375 2.203125 -0.375 C 2.304688 -0.414062 2.394531 -0.46875 2.46875 -0.53125 C 2.539062 -0.601562 2.59375 -0.679688 2.625 -0.765625 C 2.664062 -0.847656 2.6875 -0.941406 2.6875 -1.046875 C 2.6875 -1.160156 2.660156 -1.257812 2.609375 -1.34375 C 2.566406 -1.4375 2.5 -1.519531 2.40625 -1.59375 C 2.3125 -1.664062 2.191406 -1.734375 2.046875 -1.796875 C 1.910156 -1.867188 1.753906 -1.945312 1.578125 -2.03125 C 1.335938 -2.125 1.140625 -2.21875 0.984375 -2.3125 C 0.828125 -2.414062 0.695312 -2.523438 0.59375 -2.640625 C 0.5 -2.765625 0.429688 -2.894531 0.390625 -3.03125 C 0.347656 -3.164062 0.328125 -3.3125 0.328125 -3.46875 C 0.328125 -3.675781 0.367188 -3.859375 0.453125 -4.015625 C 0.535156 -4.179688 0.648438 -4.320312 0.796875 -4.4375 C 0.941406 -4.5625 1.113281 -4.65625 1.3125 -4.71875 C 1.507812 -4.78125 1.722656 -4.8125 1.953125 -4.8125 C 2.203125 -4.8125 2.414062 -4.789062 2.59375 -4.75 C 2.769531 -4.707031 2.914062 -4.648438 3.03125 -4.578125 C 3.144531 -4.515625 3.226562 -4.4375 3.28125 -4.34375 C 3.34375 -4.25 3.375 -4.144531 3.375 -4.03125 C 3.375 -3.957031 3.351562 -3.882812 3.3125 -3.8125 C 3.28125 -3.75 3.226562 -3.691406 3.15625 -3.640625 C 3.09375 -3.585938 3.007812 -3.546875 2.90625 -3.515625 C 2.8125 -3.492188 2.695312 -3.484375 2.5625 -3.484375 C 2.5625 -3.578125 2.546875 -3.675781 2.515625 -3.78125 C 2.492188 -3.894531 2.453125 -3.992188 2.390625 -4.078125 C 2.335938 -4.171875 2.265625 -4.25 2.171875 -4.3125 C 2.085938 -4.375 1.976562 -4.40625 1.84375 -4.40625 C 1.757812 -4.40625 1.675781 -4.390625 1.59375 -4.359375 C 1.519531 -4.335938 1.453125 -4.300781 1.390625 -4.25 C 1.328125 -4.195312 1.28125 -4.128906 1.25 -4.046875 C 1.21875 -3.972656 1.203125 -3.890625 1.203125 -3.796875 C 1.203125 -3.703125 1.210938 -3.613281 1.234375 -3.53125 C 1.265625 -3.445312 1.320312 -3.363281 1.40625 -3.28125 C 1.488281 -3.207031 1.597656 -3.128906 1.734375 -3.046875 C 1.878906 -2.972656 2.066406 -2.890625 2.296875 -2.796875 C 2.523438 -2.703125 2.71875 -2.601562 2.875 -2.5 C 3.03125 -2.40625 3.160156 -2.300781 3.265625 -2.1875 C 3.367188 -2.082031 3.441406 -1.960938 3.484375 -1.828125 C 3.535156 -1.691406 3.5625 -1.546875 3.5625 -1.390625 C 3.5625 -1.171875 3.519531 -0.972656 3.4375 -0.796875 C 3.351562 -0.617188 3.226562 -0.46875 3.0625 -0.34375 C 2.90625 -0.21875 2.71875 -0.117188 2.5 -0.046875 C 2.28125 0.0234375 2.03125 0.0625 1.75 0.0625 Z M 1.75 0.0625 "/></g></g></g><g fill="#737373" fill-opacity="1"><g transform="translate(98.295972, 54.096197)"><g><path d="M 1.859375 -0.40625 L 3.1875 -0.40625 C 3.25 -0.40625 3.304688 -0.414062 3.359375 -0.4375 C 3.410156 -0.46875 3.453125 -0.503906 3.484375 -0.546875 C 3.515625 -0.585938 3.539062 -0.640625 3.5625 -0.703125 C 3.582031 -0.765625 3.597656 -0.832031 3.609375 -0.90625 L 3.65625 -1.21875 L 4.125 -1.21875 L 4.078125 0 L 0.1875 0 L 0.1875 -0.359375 L 0.46875 -0.359375 C 0.507812 -0.359375 0.550781 -0.359375 0.59375 -0.359375 C 0.632812 -0.367188 0.671875 -0.382812 0.703125 -0.40625 C 0.734375 -0.4375 0.753906 -0.476562 0.765625 -0.53125 C 0.785156 -0.59375 0.796875 -0.664062 0.796875 -0.75 L 0.796875 -3.953125 C 0.796875 -4.054688 0.785156 -4.132812 0.765625 -4.1875 C 0.753906 -4.238281 0.734375 -4.28125 0.703125 -4.3125 C 0.671875 -4.34375 0.632812 -4.363281 0.59375 -4.375 C 0.550781 -4.382812 0.507812 -4.390625 0.46875 -4.390625 L 0.1875 -4.390625 L 0.1875 -4.734375 L 3.875 -4.734375 L 3.890625 -3.515625 L 3.4375 -3.515625 L 3.40625 -3.828125 C 3.382812 -3.992188 3.34375 -4.117188 3.28125 -4.203125 C 3.21875 -4.285156 3.117188 -4.328125 2.984375 -4.328125 L 1.859375 -4.328125 L 1.859375 -2.671875 L 3.4375 -2.671875 L 3.4375 -2.28125 L 1.859375 -2.28125 Z M 1.859375 -0.40625 "/></g></g></g><g fill="#737373" fill-opacity="1"><g transform="translate(104.051633, 54.096197)"><g/></g></g><g fill="#737373" fill-opacity="1"><g transform="translate(107.194366, 54.096197)"><g><path d="M 4.015625 0 L 4.015625 -0.359375 L 4.078125 -0.359375 C 4.140625 -0.359375 4.195312 -0.359375 4.25 -0.359375 C 4.3125 -0.367188 4.359375 -0.382812 4.390625 -0.40625 C 4.421875 -0.4375 4.445312 -0.476562 4.46875 -0.53125 C 4.488281 -0.582031 4.5 -0.644531 4.5 -0.71875 L 4.5 -4.078125 L 3.15625 0 L 2.703125 0 L 1.296875 -4.078125 L 1.296875 -0.78125 C 1.296875 -0.6875 1.304688 -0.609375 1.328125 -0.546875 C 1.359375 -0.492188 1.394531 -0.453125 1.4375 -0.421875 C 1.476562 -0.390625 1.523438 -0.367188 1.578125 -0.359375 C 1.640625 -0.359375 1.710938 -0.359375 1.796875 -0.359375 L 1.828125 -0.359375 L 1.828125 0 L 0.1875 0 L 0.1875 -0.359375 L 0.46875 -0.359375 C 0.507812 -0.359375 0.550781 -0.359375 0.59375 -0.359375 C 0.632812 -0.367188 0.671875 -0.382812 0.703125 -0.40625 C 0.734375 -0.4375 0.753906 -0.476562 0.765625 -0.53125 C 0.785156 -0.59375 0.796875 -0.664062 0.796875 -0.75 L 0.796875 -3.984375 C 0.796875 -4.078125 0.785156 -4.148438 0.765625 -4.203125 C 0.753906 -4.253906 0.734375 -4.289062 0.703125 -4.3125 C 0.671875 -4.34375 0.632812 -4.363281 0.59375 -4.375 C 0.550781 -4.382812 0.507812 -4.390625 0.46875 -4.390625 L 0.1875 -4.390625 L 0.1875 -4.734375 L 2.09375 -4.734375 L 3.203125 -1.53125 L 4.25 -4.734375 L 6.140625 -4.734375 L 6.140625 -4.390625 L 5.859375 -4.390625 C 5.804688 -4.390625 5.757812 -4.382812 5.71875 -4.375 C 5.675781 -4.363281 5.640625 -4.34375 5.609375 -4.3125 C 5.585938 -4.28125 5.566406 -4.238281 5.546875 -4.1875 C 5.523438 -4.132812 5.515625 -4.054688 5.515625 -3.953125 L 5.515625 -0.78125 C 5.515625 -0.6875 5.523438 -0.609375 5.546875 -0.546875 C 5.566406 -0.492188 5.585938 -0.453125 5.609375 -0.421875 C 5.640625 -0.390625 5.675781 -0.367188 5.71875 -0.359375 C 5.757812 -0.359375 5.804688 -0.359375 5.859375 -0.359375 L 6.140625 -0.359375 L 6.140625 0 Z M 4.015625 0 "/></g></g></g><g fill="#737373" fill-opacity="1"><g transform="translate(114.939747, 54.096197)"><g><path d="M 1.453125 -1.5625 L 1.25 -0.984375 C 1.238281 -0.929688 1.222656 -0.867188 1.203125 -0.796875 C 1.179688 -0.722656 1.171875 -0.660156 1.171875 -0.609375 C 1.171875 -0.566406 1.175781 -0.53125 1.1875 -0.5 C 1.207031 -0.46875 1.234375 -0.441406 1.265625 -0.421875 C 1.296875 -0.398438 1.328125 -0.382812 1.359375 -0.375 C 1.398438 -0.363281 1.4375 -0.359375 1.46875 -0.359375 L 1.75 -0.359375 L 1.75 0 L 0.03125 0 L 0.03125 -0.359375 L 0.109375 -0.359375 C 0.160156 -0.359375 0.210938 -0.363281 0.265625 -0.375 C 0.316406 -0.382812 0.363281 -0.40625 0.40625 -0.4375 C 0.445312 -0.476562 0.484375 -0.53125 0.515625 -0.59375 C 0.554688 -0.65625 0.597656 -0.738281 0.640625 -0.84375 L 2.078125 -4.734375 L 2.984375 -4.734375 L 4.375 -0.828125 C 4.40625 -0.734375 4.4375 -0.65625 4.46875 -0.59375 C 4.507812 -0.53125 4.550781 -0.484375 4.59375 -0.453125 C 4.632812 -0.421875 4.675781 -0.394531 4.71875 -0.375 C 4.769531 -0.363281 4.820312 -0.359375 4.875 -0.359375 L 5 -0.359375 L 5 0 L 2.8125 0 L 2.8125 -0.359375 L 3.0625 -0.359375 C 3.09375 -0.359375 3.125 -0.359375 3.15625 -0.359375 C 3.195312 -0.367188 3.226562 -0.382812 3.25 -0.40625 C 3.28125 -0.425781 3.304688 -0.453125 3.328125 -0.484375 C 3.347656 -0.523438 3.359375 -0.566406 3.359375 -0.609375 C 3.359375 -0.660156 3.347656 -0.710938 3.328125 -0.765625 C 3.316406 -0.816406 3.304688 -0.859375 3.296875 -0.890625 L 3.0625 -1.5625 Z M 2.578125 -3.046875 C 2.554688 -3.128906 2.53125 -3.210938 2.5 -3.296875 C 2.476562 -3.378906 2.453125 -3.460938 2.421875 -3.546875 C 2.398438 -3.628906 2.378906 -3.710938 2.359375 -3.796875 C 2.335938 -3.890625 2.316406 -3.972656 2.296875 -4.046875 C 2.273438 -3.984375 2.25 -3.910156 2.21875 -3.828125 C 2.195312 -3.742188 2.171875 -3.660156 2.140625 -3.578125 C 2.117188 -3.492188 2.09375 -3.410156 2.0625 -3.328125 C 2.03125 -3.242188 2.003906 -3.164062 1.984375 -3.09375 L 1.578125 -1.96875 L 2.921875 -1.96875 Z M 2.578125 -3.046875 "/></g></g></g><g fill="#737373" fill-opacity="1"><g transform="translate(121.360812, 54.096197)"><g><path d="M 3.890625 0 L 1.296875 -3.65625 L 1.296875 -0.78125 C 1.296875 -0.6875 1.304688 -0.609375 1.328125 -0.546875 C 1.347656 -0.492188 1.375 -0.453125 1.40625 -0.421875 C 1.4375 -0.390625 1.472656 -0.367188 1.515625 -0.359375 C 1.554688 -0.359375 1.597656 -0.359375 1.640625 -0.359375 L 1.921875 -0.359375 L 1.921875 0 L 0.1875 0 L 0.1875 -0.359375 L 0.46875 -0.359375 C 0.507812 -0.359375 0.550781 -0.359375 0.59375 -0.359375 C 0.632812 -0.367188 0.671875 -0.390625 0.703125 -0.421875 C 0.734375 -0.453125 0.753906 -0.492188 0.765625 -0.546875 C 0.785156 -0.609375 0.796875 -0.6875 0.796875 -0.78125 L 0.796875 -3.984375 C 0.796875 -4.078125 0.785156 -4.148438 0.765625 -4.203125 C 0.753906 -4.253906 0.734375 -4.289062 0.703125 -4.3125 C 0.671875 -4.34375 0.632812 -4.363281 0.59375 -4.375 C 0.550781 -4.382812 0.507812 -4.390625 0.46875 -4.390625 L 0.1875 -4.390625 L 0.1875 -4.734375 L 1.65625 -4.734375 L 4 -1.421875 L 4 -3.984375 C 4 -4.078125 3.988281 -4.148438 3.96875 -4.203125 C 3.957031 -4.253906 3.9375 -4.289062 3.90625 -4.3125 C 3.875 -4.34375 3.835938 -4.363281 3.796875 -4.375 C 3.753906 -4.382812 3.707031 -4.390625 3.65625 -4.390625 L 3.390625 -4.390625 L 3.390625 -4.734375 L 5.125 -4.734375 L 5.125 -4.390625 L 4.84375 -4.390625 C 4.789062 -4.390625 4.742188 -4.382812 4.703125 -4.375 C 4.671875 -4.363281 4.640625 -4.34375 4.609375 -4.3125 C 4.578125 -4.28125 4.550781 -4.238281 4.53125 -4.1875 C 4.507812 -4.132812 4.5 -4.054688 4.5 -3.953125 L 4.5 0 Z M 3.890625 0 "/></g></g></g><g fill="#737373" fill-opacity="1"><g transform="translate(128.01558, 54.096197)"><g><path d="M 1.453125 -1.5625 L 1.25 -0.984375 C 1.238281 -0.929688 1.222656 -0.867188 1.203125 -0.796875 C 1.179688 -0.722656 1.171875 -0.660156 1.171875 -0.609375 C 1.171875 -0.566406 1.175781 -0.53125 1.1875 -0.5 C 1.207031 -0.46875 1.234375 -0.441406 1.265625 -0.421875 C 1.296875 -0.398438 1.328125 -0.382812 1.359375 -0.375 C 1.398438 -0.363281 1.4375 -0.359375 1.46875 -0.359375 L 1.75 -0.359375 L 1.75 0 L 0.03125 0 L 0.03125 -0.359375 L 0.109375 -0.359375 C 0.160156 -0.359375 0.210938 -0.363281 0.265625 -0.375 C 0.316406 -0.382812 0.363281 -0.40625 0.40625 -0.4375 C 0.445312 -0.476562 0.484375 -0.53125 0.515625 -0.59375 C 0.554688 -0.65625 0.597656 -0.738281 0.640625 -0.84375 L 2.078125 -4.734375 L 2.984375 -4.734375 L 4.375 -0.828125 C 4.40625 -0.734375 4.4375 -0.65625 4.46875 -0.59375 C 4.507812 -0.53125 4.550781 -0.484375 4.59375 -0.453125 C 4.632812 -0.421875 4.675781 -0.394531 4.71875 -0.375 C 4.769531 -0.363281 4.820312 -0.359375 4.875 -0.359375 L 5 -0.359375 L 5 0 L 2.8125 0 L 2.8125 -0.359375 L 3.0625 -0.359375 C 3.09375 -0.359375 3.125 -0.359375 3.15625 -0.359375 C 3.195312 -0.367188 3.226562 -0.382812 3.25 -0.40625 C 3.28125 -0.425781 3.304688 -0.453125 3.328125 -0.484375 C 3.347656 -0.523438 3.359375 -0.566406 3.359375 -0.609375 C 3.359375 -0.660156 3.347656 -0.710938 3.328125 -0.765625 C 3.316406 -0.816406 3.304688 -0.859375 3.296875 -0.890625 L 3.0625 -1.5625 Z M 2.578125 -3.046875 C 2.554688 -3.128906 2.53125 -3.210938 2.5 -3.296875 C 2.476562 -3.378906 2.453125 -3.460938 2.421875 -3.546875 C 2.398438 -3.628906 2.378906 -3.710938 2.359375 -3.796875 C 2.335938 -3.890625 2.316406 -3.972656 2.296875 -4.046875 C 2.273438 -3.984375 2.25 -3.910156 2.21875 -3.828125 C 2.195312 -3.742188 2.171875 -3.660156 2.140625 -3.578125 C 2.117188 -3.492188 2.09375 -3.410156 2.0625 -3.328125 C 2.03125 -3.242188 2.003906 -3.164062 1.984375 -3.09375 L 1.578125 -1.96875 L 2.921875 -1.96875 Z M 2.578125 -3.046875 "/></g></g></g><g fill="#737373" fill-opacity="1"><g transform="translate(134.436645, 54.096197)"><g><path d="M 2.8125 0.0625 C 2.394531 0.0625 2.035156 0.00390625 1.734375 -0.109375 C 1.429688 -0.222656 1.175781 -0.382812 0.96875 -0.59375 C 0.769531 -0.8125 0.617188 -1.070312 0.515625 -1.375 C 0.410156 -1.675781 0.359375 -2.007812 0.359375 -2.375 C 0.359375 -2.738281 0.410156 -3.066406 0.515625 -3.359375 C 0.628906 -3.660156 0.789062 -3.914062 1 -4.125 C 1.207031 -4.34375 1.460938 -4.507812 1.765625 -4.625 C 2.078125 -4.75 2.4375 -4.8125 2.84375 -4.8125 C 3.125 -4.8125 3.363281 -4.789062 3.5625 -4.75 C 3.769531 -4.707031 3.941406 -4.648438 4.078125 -4.578125 C 4.222656 -4.515625 4.328125 -4.4375 4.390625 -4.34375 C 4.460938 -4.25 4.5 -4.144531 4.5 -4.03125 C 4.5 -3.957031 4.476562 -3.882812 4.4375 -3.8125 C 4.40625 -3.75 4.351562 -3.691406 4.28125 -3.640625 C 4.207031 -3.585938 4.117188 -3.546875 4.015625 -3.515625 C 3.910156 -3.484375 3.785156 -3.46875 3.640625 -3.46875 C 3.640625 -3.601562 3.625 -3.726562 3.59375 -3.84375 C 3.5625 -3.957031 3.507812 -4.050781 3.4375 -4.125 C 3.375 -4.207031 3.289062 -4.269531 3.1875 -4.3125 C 3.082031 -4.363281 2.960938 -4.390625 2.828125 -4.390625 C 2.578125 -4.390625 2.367188 -4.34375 2.203125 -4.25 C 2.035156 -4.164062 1.894531 -4.035156 1.78125 -3.859375 C 1.675781 -3.691406 1.597656 -3.484375 1.546875 -3.234375 C 1.503906 -2.984375 1.484375 -2.695312 1.484375 -2.375 C 1.484375 -2.050781 1.507812 -1.765625 1.5625 -1.515625 C 1.613281 -1.273438 1.691406 -1.070312 1.796875 -0.90625 C 1.910156 -0.738281 2.054688 -0.609375 2.234375 -0.515625 C 2.421875 -0.429688 2.644531 -0.390625 2.90625 -0.390625 C 2.988281 -0.390625 3.070312 -0.390625 3.15625 -0.390625 C 3.238281 -0.398438 3.316406 -0.414062 3.390625 -0.4375 L 3.390625 -1.40625 C 3.390625 -1.582031 3.347656 -1.703125 3.265625 -1.765625 C 3.191406 -1.835938 3.078125 -1.875 2.921875 -1.875 L 2.828125 -1.875 L 2.828125 -2.234375 L 4.921875 -2.234375 L 4.921875 -1.875 L 4.828125 -1.875 C 4.765625 -1.875 4.707031 -1.863281 4.65625 -1.84375 C 4.601562 -1.832031 4.5625 -1.804688 4.53125 -1.765625 C 4.5 -1.734375 4.472656 -1.6875 4.453125 -1.625 C 4.441406 -1.5625 4.4375 -1.476562 4.4375 -1.375 L 4.4375 -0.296875 C 4.175781 -0.171875 3.914062 -0.078125 3.65625 -0.015625 C 3.394531 0.0351562 3.113281 0.0625 2.8125 0.0625 Z M 2.8125 0.0625 "/></g></g></g><g fill="#737373" fill-opacity="1"><g transform="translate(140.964824, 54.096197)"><g><path d="M 1.859375 -0.40625 L 3.1875 -0.40625 C 3.25 -0.40625 3.304688 -0.414062 3.359375 -0.4375 C 3.410156 -0.46875 3.453125 -0.503906 3.484375 -0.546875 C 3.515625 -0.585938 3.539062 -0.640625 3.5625 -0.703125 C 3.582031 -0.765625 3.597656 -0.832031 3.609375 -0.90625 L 3.65625 -1.21875 L 4.125 -1.21875 L 4.078125 0 L 0.1875 0 L 0.1875 -0.359375 L 0.46875 -0.359375 C 0.507812 -0.359375 0.550781 -0.359375 0.59375 -0.359375 C 0.632812 -0.367188 0.671875 -0.382812 0.703125 -0.40625 C 0.734375 -0.4375 0.753906 -0.476562 0.765625 -0.53125 C 0.785156 -0.59375 0.796875 -0.664062 0.796875 -0.75 L 0.796875 -3.953125 C 0.796875 -4.054688 0.785156 -4.132812 0.765625 -4.1875 C 0.753906 -4.238281 0.734375 -4.28125 0.703125 -4.3125 C 0.671875 -4.34375 0.632812 -4.363281 0.59375 -4.375 C 0.550781 -4.382812 0.507812 -4.390625 0.46875 -4.390625 L 0.1875 -4.390625 L 0.1875 -4.734375 L 3.875 -4.734375 L 3.890625 -3.515625 L 3.4375 -3.515625 L 3.40625 -3.828125 C 3.382812 -3.992188 3.34375 -4.117188 3.28125 -4.203125 C 3.21875 -4.285156 3.117188 -4.328125 2.984375 -4.328125 L 1.859375 -4.328125 L 1.859375 -2.671875 L 3.4375 -2.671875 L 3.4375 -2.28125 L 1.859375 -2.28125 Z M 1.859375 -0.40625 "/></g></g></g><g fill="#737373" fill-opacity="1"><g transform="translate(146.720485, 54.096197)"><g><path d="M 4.015625 0 L 4.015625 -0.359375 L 4.078125 -0.359375 C 4.140625 -0.359375 4.195312 -0.359375 4.25 -0.359375 C 4.3125 -0.367188 4.359375 -0.382812 4.390625 -0.40625 C 4.421875 -0.4375 4.445312 -0.476562 4.46875 -0.53125 C 4.488281 -0.582031 4.5 -0.644531 4.5 -0.71875 L 4.5 -4.078125 L 3.15625 0 L 2.703125 0 L 1.296875 -4.078125 L 1.296875 -0.78125 C 1.296875 -0.6875 1.304688 -0.609375 1.328125 -0.546875 C 1.359375 -0.492188 1.394531 -0.453125 1.4375 -0.421875 C 1.476562 -0.390625 1.523438 -0.367188 1.578125 -0.359375 C 1.640625 -0.359375 1.710938 -0.359375 1.796875 -0.359375 L 1.828125 -0.359375 L 1.828125 0 L 0.1875 0 L 0.1875 -0.359375 L 0.46875 -0.359375 C 0.507812 -0.359375 0.550781 -0.359375 0.59375 -0.359375 C 0.632812 -0.367188 0.671875 -0.382812 0.703125 -0.40625 C 0.734375 -0.4375 0.753906 -0.476562 0.765625 -0.53125 C 0.785156 -0.59375 0.796875 -0.664062 0.796875 -0.75 L 0.796875 -3.984375 C 0.796875 -4.078125 0.785156 -4.148438 0.765625 -4.203125 C 0.753906 -4.253906 0.734375 -4.289062 0.703125 -4.3125 C 0.671875 -4.34375 0.632812 -4.363281 0.59375 -4.375 C 0.550781 -4.382812 0.507812 -4.390625 0.46875 -4.390625 L 0.1875 -4.390625 L 0.1875 -4.734375 L 2.09375 -4.734375 L 3.203125 -1.53125 L 4.25 -4.734375 L 6.140625 -4.734375 L 6.140625 -4.390625 L 5.859375 -4.390625 C 5.804688 -4.390625 5.757812 -4.382812 5.71875 -4.375 C 5.675781 -4.363281 5.640625 -4.34375 5.609375 -4.3125 C 5.585938 -4.28125 5.566406 -4.238281 5.546875 -4.1875 C 5.523438 -4.132812 5.515625 -4.054688 5.515625 -3.953125 L 5.515625 -0.78125 C 5.515625 -0.6875 5.523438 -0.609375 5.546875 -0.546875 C 5.566406 -0.492188 5.585938 -0.453125 5.609375 -0.421875 C 5.640625 -0.390625 5.675781 -0.367188 5.71875 -0.359375 C 5.757812 -0.359375 5.804688 -0.359375 5.859375 -0.359375 L 6.140625 -0.359375 L 6.140625 0 Z M 4.015625 0 "/></g></g></g><g fill="#737373" fill-opacity="1"><g transform="translate(154.465866, 54.096197)"><g><path d="M 1.859375 -0.40625 L 3.1875 -0.40625 C 3.25 -0.40625 3.304688 -0.414062 3.359375 -0.4375 C 3.410156 -0.46875 3.453125 -0.503906 3.484375 -0.546875 C 3.515625 -0.585938 3.539062 -0.640625 3.5625 -0.703125 C 3.582031 -0.765625 3.597656 -0.832031 3.609375 -0.90625 L 3.65625 -1.21875 L 4.125 -1.21875 L 4.078125 0 L 0.1875 0 L 0.1875 -0.359375 L 0.46875 -0.359375 C 0.507812 -0.359375 0.550781 -0.359375 0.59375 -0.359375 C 0.632812 -0.367188 0.671875 -0.382812 0.703125 -0.40625 C 0.734375 -0.4375 0.753906 -0.476562 0.765625 -0.53125 C 0.785156 -0.59375 0.796875 -0.664062 0.796875 -0.75 L 0.796875 -3.953125 C 0.796875 -4.054688 0.785156 -4.132812 0.765625 -4.1875 C 0.753906 -4.238281 0.734375 -4.28125 0.703125 -4.3125 C 0.671875 -4.34375 0.632812 -4.363281 0.59375 -4.375 C 0.550781 -4.382812 0.507812 -4.390625 0.46875 -4.390625 L 0.1875 -4.390625 L 0.1875 -4.734375 L 3.875 -4.734375 L 3.890625 -3.515625 L 3.4375 -3.515625 L 3.40625 -3.828125 C 3.382812 -3.992188 3.34375 -4.117188 3.28125 -4.203125 C 3.21875 -4.285156 3.117188 -4.328125 2.984375 -4.328125 L 1.859375 -4.328125 L 1.859375 -2.671875 L 3.4375 -2.671875 L 3.4375 -2.28125 L 1.859375 -2.28125 Z M 1.859375 -0.40625 "/></g></g></g><g fill="#737373" fill-opacity="1"><g transform="translate(160.221527, 54.096197)"><g><path d="M 3.890625 0 L 1.296875 -3.65625 L 1.296875 -0.78125 C 1.296875 -0.6875 1.304688 -0.609375 1.328125 -0.546875 C 1.347656 -0.492188 1.375 -0.453125 1.40625 -0.421875 C 1.4375 -0.390625 1.472656 -0.367188 1.515625 -0.359375 C 1.554688 -0.359375 1.597656 -0.359375 1.640625 -0.359375 L 1.921875 -0.359375 L 1.921875 0 L 0.1875 0 L 0.1875 -0.359375 L 0.46875 -0.359375 C 0.507812 -0.359375 0.550781 -0.359375 0.59375 -0.359375 C 0.632812 -0.367188 0.671875 -0.390625 0.703125 -0.421875 C 0.734375 -0.453125 0.753906 -0.492188 0.765625 -0.546875 C 0.785156 -0.609375 0.796875 -0.6875 0.796875 -0.78125 L 0.796875 -3.984375 C 0.796875 -4.078125 0.785156 -4.148438 0.765625 -4.203125 C 0.753906 -4.253906 0.734375 -4.289062 0.703125 -4.3125 C 0.671875 -4.34375 0.632812 -4.363281 0.59375 -4.375 C 0.550781 -4.382812 0.507812 -4.390625 0.46875 -4.390625 L 0.1875 -4.390625 L 0.1875 -4.734375 L 1.65625 -4.734375 L 4 -1.421875 L 4 -3.984375 C 4 -4.078125 3.988281 -4.148438 3.96875 -4.203125 C 3.957031 -4.253906 3.9375 -4.289062 3.90625 -4.3125 C 3.875 -4.34375 3.835938 -4.363281 3.796875 -4.375 C 3.753906 -4.382812 3.707031 -4.390625 3.65625 -4.390625 L 3.390625 -4.390625 L 3.390625 -4.734375 L 5.125 -4.734375 L 5.125 -4.390625 L 4.84375 -4.390625 C 4.789062 -4.390625 4.742188 -4.382812 4.703125 -4.375 C 4.671875 -4.363281 4.640625 -4.34375 4.609375 -4.3125 C 4.578125 -4.28125 4.550781 -4.238281 4.53125 -4.1875 C 4.507812 -4.132812 4.5 -4.054688 4.5 -3.953125 L 4.5 0 Z M 3.890625 0 "/></g></g></g><g fill="#737373" fill-opacity="1"><g transform="translate(166.876295, 54.096197)"><g><path d="M 2.6875 -0.78125 C 2.6875 -0.6875 2.695312 -0.609375 2.71875 -0.546875 C 2.738281 -0.492188 2.765625 -0.453125 2.796875 -0.421875 C 2.828125 -0.390625 2.863281 -0.367188 2.90625 -0.359375 C 2.945312 -0.359375 2.988281 -0.359375 3.03125 -0.359375 L 3.3125 -0.359375 L 3.3125 0 L 1.015625 0 L 1.015625 -0.359375 L 1.296875 -0.359375 C 1.347656 -0.359375 1.394531 -0.359375 1.4375 -0.359375 C 1.476562 -0.367188 1.515625 -0.390625 1.546875 -0.421875 C 1.578125 -0.453125 1.597656 -0.492188 1.609375 -0.546875 C 1.628906 -0.609375 1.640625 -0.6875 1.640625 -0.78125 L 1.640625 -4.328125 L 1.109375 -4.328125 C 1.003906 -4.328125 0.921875 -4.316406 0.859375 -4.296875 C 0.796875 -4.273438 0.738281 -4.242188 0.6875 -4.203125 C 0.644531 -4.171875 0.613281 -4.125 0.59375 -4.0625 C 0.582031 -4 0.570312 -3.929688 0.5625 -3.859375 L 0.515625 -3.453125 L 0.0625 -3.453125 L 0.09375 -4.734375 L 4.234375 -4.734375 L 4.265625 -3.453125 L 3.828125 -3.453125 L 3.78125 -3.859375 C 3.769531 -3.929688 3.753906 -4 3.734375 -4.0625 C 3.710938 -4.125 3.679688 -4.171875 3.640625 -4.203125 C 3.597656 -4.242188 3.539062 -4.273438 3.46875 -4.296875 C 3.40625 -4.316406 3.320312 -4.328125 3.21875 -4.328125 L 2.6875 -4.328125 Z M 2.6875 -0.78125 "/></g></g></g><g fill="#737373" fill-opacity="1"><g transform="translate(172.631956, 54.096197)"><g/></g></g><g fill="#737373" fill-opacity="1"><g transform="translate(175.774689, 54.096197)"><g><path d="M 1.75 0.0625 C 1.457031 0.0625 1.207031 0.0351562 1 -0.015625 C 0.800781 -0.078125 0.640625 -0.148438 0.515625 -0.234375 C 0.398438 -0.328125 0.316406 -0.425781 0.265625 -0.53125 C 0.222656 -0.644531 0.203125 -0.753906 0.203125 -0.859375 C 0.203125 -0.972656 0.222656 -1.066406 0.265625 -1.140625 C 0.304688 -1.222656 0.359375 -1.289062 0.421875 -1.34375 C 0.492188 -1.394531 0.570312 -1.429688 0.65625 -1.453125 C 0.75 -1.472656 0.847656 -1.484375 0.953125 -1.484375 C 0.953125 -1.296875 0.972656 -1.128906 1.015625 -0.984375 C 1.066406 -0.835938 1.128906 -0.71875 1.203125 -0.625 C 1.285156 -0.53125 1.378906 -0.457031 1.484375 -0.40625 C 1.597656 -0.351562 1.722656 -0.328125 1.859375 -0.328125 C 1.984375 -0.328125 2.097656 -0.34375 2.203125 -0.375 C 2.304688 -0.414062 2.394531 -0.46875 2.46875 -0.53125 C 2.539062 -0.601562 2.59375 -0.679688 2.625 -0.765625 C 2.664062 -0.847656 2.6875 -0.941406 2.6875 -1.046875 C 2.6875 -1.160156 2.660156 -1.257812 2.609375 -1.34375 C 2.566406 -1.4375 2.5 -1.519531 2.40625 -1.59375 C 2.3125 -1.664062 2.191406 -1.734375 2.046875 -1.796875 C 1.910156 -1.867188 1.753906 -1.945312 1.578125 -2.03125 C 1.335938 -2.125 1.140625 -2.21875 0.984375 -2.3125 C 0.828125 -2.414062 0.695312 -2.523438 0.59375 -2.640625 C 0.5 -2.765625 0.429688 -2.894531 0.390625 -3.03125 C 0.347656 -3.164062 0.328125 -3.3125 0.328125 -3.46875 C 0.328125 -3.675781 0.367188 -3.859375 0.453125 -4.015625 C 0.535156 -4.179688 0.648438 -4.320312 0.796875 -4.4375 C 0.941406 -4.5625 1.113281 -4.65625 1.3125 -4.71875 C 1.507812 -4.78125 1.722656 -4.8125 1.953125 -4.8125 C 2.203125 -4.8125 2.414062 -4.789062 2.59375 -4.75 C 2.769531 -4.707031 2.914062 -4.648438 3.03125 -4.578125 C 3.144531 -4.515625 3.226562 -4.4375 3.28125 -4.34375 C 3.34375 -4.25 3.375 -4.144531 3.375 -4.03125 C 3.375 -3.957031 3.351562 -3.882812 3.3125 -3.8125 C 3.28125 -3.75 3.226562 -3.691406 3.15625 -3.640625 C 3.09375 -3.585938 3.007812 -3.546875 2.90625 -3.515625 C 2.8125 -3.492188 2.695312 -3.484375 2.5625 -3.484375 C 2.5625 -3.578125 2.546875 -3.675781 2.515625 -3.78125 C 2.492188 -3.894531 2.453125 -3.992188 2.390625 -4.078125 C 2.335938 -4.171875 2.265625 -4.25 2.171875 -4.3125 C 2.085938 -4.375 1.976562 -4.40625 1.84375 -4.40625 C 1.757812 -4.40625 1.675781 -4.390625 1.59375 -4.359375 C 1.519531 -4.335938 1.453125 -4.300781 1.390625 -4.25 C 1.328125 -4.195312 1.28125 -4.128906 1.25 -4.046875 C 1.21875 -3.972656 1.203125 -3.890625 1.203125 -3.796875 C 1.203125 -3.703125 1.210938 -3.613281 1.234375 -3.53125 C 1.265625 -3.445312 1.320312 -3.363281 1.40625 -3.28125 C 1.488281 -3.207031 1.597656 -3.128906 1.734375 -3.046875 C 1.878906 -2.972656 2.066406 -2.890625 2.296875 -2.796875 C 2.523438 -2.703125 2.71875 -2.601562 2.875 -2.5 C 3.03125 -2.40625 3.160156 -2.300781 3.265625 -2.1875 C 3.367188 -2.082031 3.441406 -1.960938 3.484375 -1.828125 C 3.535156 -1.691406 3.5625 -1.546875 3.5625 -1.390625 C 3.5625 -1.171875 3.519531 -0.972656 3.4375 -0.796875 C 3.351562 -0.617188 3.226562 -0.46875 3.0625 -0.34375 C 2.90625 -0.21875 2.71875 -0.117188 2.5 -0.046875 C 2.28125 0.0234375 2.03125 0.0625 1.75 0.0625 Z M 1.75 0.0625 "/></g></g></g><g fill="#737373" fill-opacity="1"><g transform="translate(181.085665, 54.096197)"><g><path d="M 1.09375 0 L 1.09375 -0.359375 L 1.40625 -0.359375 C 1.457031 -0.359375 1.503906 -0.359375 1.546875 -0.359375 C 1.597656 -0.367188 1.640625 -0.382812 1.671875 -0.40625 C 1.703125 -0.4375 1.726562 -0.476562 1.75 -0.53125 C 1.769531 -0.582031 1.78125 -0.65625 1.78125 -0.75 L 1.78125 -1.671875 L 0.5625 -4.03125 C 0.53125 -4.101562 0.5 -4.160156 0.46875 -4.203125 C 0.4375 -4.242188 0.398438 -4.273438 0.359375 -4.296875 C 0.328125 -4.328125 0.289062 -4.347656 0.25 -4.359375 C 0.207031 -4.378906 0.15625 -4.390625 0.09375 -4.390625 L 0 -4.390625 L 0 -4.734375 L 2.21875 -4.734375 L 2.21875 -4.390625 L 2.109375 -4.390625 C 1.972656 -4.390625 1.875 -4.363281 1.8125 -4.3125 C 1.75 -4.257812 1.71875 -4.1875 1.71875 -4.09375 C 1.71875 -4.03125 1.726562 -3.96875 1.75 -3.90625 C 1.769531 -3.84375 1.789062 -3.78125 1.8125 -3.71875 L 2.3125 -2.75 C 2.375 -2.601562 2.425781 -2.476562 2.46875 -2.375 C 2.519531 -2.269531 2.5625 -2.164062 2.59375 -2.0625 C 2.644531 -2.175781 2.695312 -2.300781 2.75 -2.4375 C 2.8125 -2.570312 2.878906 -2.71875 2.953125 -2.875 L 3.34375 -3.65625 C 3.382812 -3.757812 3.410156 -3.84375 3.421875 -3.90625 C 3.441406 -3.96875 3.453125 -4.019531 3.453125 -4.0625 C 3.453125 -4.175781 3.414062 -4.257812 3.34375 -4.3125 C 3.269531 -4.363281 3.160156 -4.390625 3.015625 -4.390625 L 2.859375 -4.390625 L 2.859375 -4.734375 L 4.59375 -4.734375 L 4.59375 -4.390625 L 4.46875 -4.390625 C 4.414062 -4.390625 4.367188 -4.378906 4.328125 -4.359375 C 4.285156 -4.347656 4.242188 -4.320312 4.203125 -4.28125 C 4.171875 -4.25 4.132812 -4.195312 4.09375 -4.125 C 4.0625 -4.0625 4.019531 -3.976562 3.96875 -3.875 L 2.84375 -1.671875 L 2.84375 -0.765625 C 2.84375 -0.671875 2.851562 -0.59375 2.875 -0.53125 C 2.894531 -0.476562 2.921875 -0.4375 2.953125 -0.40625 C 2.984375 -0.382812 3.019531 -0.367188 3.0625 -0.359375 C 3.113281 -0.359375 3.164062 -0.359375 3.21875 -0.359375 L 3.546875 -0.359375 L 3.546875 0 Z M 1.09375 0 "/></g></g></g><g fill="#737373" fill-opacity="1"><g transform="translate(187.107488, 54.096197)"><g><path d="M 1.75 0.0625 C 1.457031 0.0625 1.207031 0.0351562 1 -0.015625 C 0.800781 -0.078125 0.640625 -0.148438 0.515625 -0.234375 C 0.398438 -0.328125 0.316406 -0.425781 0.265625 -0.53125 C 0.222656 -0.644531 0.203125 -0.753906 0.203125 -0.859375 C 0.203125 -0.972656 0.222656 -1.066406 0.265625 -1.140625 C 0.304688 -1.222656 0.359375 -1.289062 0.421875 -1.34375 C 0.492188 -1.394531 0.570312 -1.429688 0.65625 -1.453125 C 0.75 -1.472656 0.847656 -1.484375 0.953125 -1.484375 C 0.953125 -1.296875 0.972656 -1.128906 1.015625 -0.984375 C 1.066406 -0.835938 1.128906 -0.71875 1.203125 -0.625 C 1.285156 -0.53125 1.378906 -0.457031 1.484375 -0.40625 C 1.597656 -0.351562 1.722656 -0.328125 1.859375 -0.328125 C 1.984375 -0.328125 2.097656 -0.34375 2.203125 -0.375 C 2.304688 -0.414062 2.394531 -0.46875 2.46875 -0.53125 C 2.539062 -0.601562 2.59375 -0.679688 2.625 -0.765625 C 2.664062 -0.847656 2.6875 -0.941406 2.6875 -1.046875 C 2.6875 -1.160156 2.660156 -1.257812 2.609375 -1.34375 C 2.566406 -1.4375 2.5 -1.519531 2.40625 -1.59375 C 2.3125 -1.664062 2.191406 -1.734375 2.046875 -1.796875 C 1.910156 -1.867188 1.753906 -1.945312 1.578125 -2.03125 C 1.335938 -2.125 1.140625 -2.21875 0.984375 -2.3125 C 0.828125 -2.414062 0.695312 -2.523438 0.59375 -2.640625 C 0.5 -2.765625 0.429688 -2.894531 0.390625 -3.03125 C 0.347656 -3.164062 0.328125 -3.3125 0.328125 -3.46875 C 0.328125 -3.675781 0.367188 -3.859375 0.453125 -4.015625 C 0.535156 -4.179688 0.648438 -4.320312 0.796875 -4.4375 C 0.941406 -4.5625 1.113281 -4.65625 1.3125 -4.71875 C 1.507812 -4.78125 1.722656 -4.8125 1.953125 -4.8125 C 2.203125 -4.8125 2.414062 -4.789062 2.59375 -4.75 C 2.769531 -4.707031 2.914062 -4.648438 3.03125 -4.578125 C 3.144531 -4.515625 3.226562 -4.4375 3.28125 -4.34375 C 3.34375 -4.25 3.375 -4.144531 3.375 -4.03125 C 3.375 -3.957031 3.351562 -3.882812 3.3125 -3.8125 C 3.28125 -3.75 3.226562 -3.691406 3.15625 -3.640625 C 3.09375 -3.585938 3.007812 -3.546875 2.90625 -3.515625 C 2.8125 -3.492188 2.695312 -3.484375 2.5625 -3.484375 C 2.5625 -3.578125 2.546875 -3.675781 2.515625 -3.78125 C 2.492188 -3.894531 2.453125 -3.992188 2.390625 -4.078125 C 2.335938 -4.171875 2.265625 -4.25 2.171875 -4.3125 C 2.085938 -4.375 1.976562 -4.40625 1.84375 -4.40625 C 1.757812 -4.40625 1.675781 -4.390625 1.59375 -4.359375 C 1.519531 -4.335938 1.453125 -4.300781 1.390625 -4.25 C 1.328125 -4.195312 1.28125 -4.128906 1.25 -4.046875 C 1.21875 -3.972656 1.203125 -3.890625 1.203125 -3.796875 C 1.203125 -3.703125 1.210938 -3.613281 1.234375 -3.53125 C 1.265625 -3.445312 1.320312 -3.363281 1.40625 -3.28125 C 1.488281 -3.207031 1.597656 -3.128906 1.734375 -3.046875 C 1.878906 -2.972656 2.066406 -2.890625 2.296875 -2.796875 C 2.523438 -2.703125 2.71875 -2.601562 2.875 -2.5 C 3.03125 -2.40625 3.160156 -2.300781 3.265625 -2.1875 C 3.367188 -2.082031 3.441406 -1.960938 3.484375 -1.828125 C 3.535156 -1.691406 3.5625 -1.546875 3.5625 -1.390625 C 3.5625 -1.171875 3.519531 -0.972656 3.4375 -0.796875 C 3.351562 -0.617188 3.226562 -0.46875 3.0625 -0.34375 C 2.90625 -0.21875 2.71875 -0.117188 2.5 -0.046875 C 2.28125 0.0234375 2.03125 0.0625 1.75 0.0625 Z M 1.75 0.0625 "/></g></g></g><g fill="#737373" fill-opacity="1"><g transform="translate(192.418464, 54.096197)"><g><path d="M 2.6875 -0.78125 C 2.6875 -0.6875 2.695312 -0.609375 2.71875 -0.546875 C 2.738281 -0.492188 2.765625 -0.453125 2.796875 -0.421875 C 2.828125 -0.390625 2.863281 -0.367188 2.90625 -0.359375 C 2.945312 -0.359375 2.988281 -0.359375 3.03125 -0.359375 L 3.3125 -0.359375 L 3.3125 0 L 1.015625 0 L 1.015625 -0.359375 L 1.296875 -0.359375 C 1.347656 -0.359375 1.394531 -0.359375 1.4375 -0.359375 C 1.476562 -0.367188 1.515625 -0.390625 1.546875 -0.421875 C 1.578125 -0.453125 1.597656 -0.492188 1.609375 -0.546875 C 1.628906 -0.609375 1.640625 -0.6875 1.640625 -0.78125 L 1.640625 -4.328125 L 1.109375 -4.328125 C 1.003906 -4.328125 0.921875 -4.316406 0.859375 -4.296875 C 0.796875 -4.273438 0.738281 -4.242188 0.6875 -4.203125 C 0.644531 -4.171875 0.613281 -4.125 0.59375 -4.0625 C 0.582031 -4 0.570312 -3.929688 0.5625 -3.859375 L 0.515625 -3.453125 L 0.0625 -3.453125 L 0.09375 -4.734375 L 4.234375 -4.734375 L 4.265625 -3.453125 L 3.828125 -3.453125 L 3.78125 -3.859375 C 3.769531 -3.929688 3.753906 -4 3.734375 -4.0625 C 3.710938 -4.125 3.679688 -4.171875 3.640625 -4.203125 C 3.597656 -4.242188 3.539062 -4.273438 3.46875 -4.296875 C 3.40625 -4.316406 3.320312 -4.328125 3.21875 -4.328125 L 2.6875 -4.328125 Z M 2.6875 -0.78125 "/></g></g></g><g fill="#737373" fill-opacity="1"><g transform="translate(198.174125, 54.096197)"><g><path d="M 1.859375 -0.40625 L 3.1875 -0.40625 C 3.25 -0.40625 3.304688 -0.414062 3.359375 -0.4375 C 3.410156 -0.46875 3.453125 -0.503906 3.484375 -0.546875 C 3.515625 -0.585938 3.539062 -0.640625 3.5625 -0.703125 C 3.582031 -0.765625 3.597656 -0.832031 3.609375 -0.90625 L 3.65625 -1.21875 L 4.125 -1.21875 L 4.078125 0 L 0.1875 0 L 0.1875 -0.359375 L 0.46875 -0.359375 C 0.507812 -0.359375 0.550781 -0.359375 0.59375 -0.359375 C 0.632812 -0.367188 0.671875 -0.382812 0.703125 -0.40625 C 0.734375 -0.4375 0.753906 -0.476562 0.765625 -0.53125 C 0.785156 -0.59375 0.796875 -0.664062 0.796875 -0.75 L 0.796875 -3.953125 C 0.796875 -4.054688 0.785156 -4.132812 0.765625 -4.1875 C 0.753906 -4.238281 0.734375 -4.28125 0.703125 -4.3125 C 0.671875 -4.34375 0.632812 -4.363281 0.59375 -4.375 C 0.550781 -4.382812 0.507812 -4.390625 0.46875 -4.390625 L 0.1875 -4.390625 L 0.1875 -4.734375 L 3.875 -4.734375 L 3.890625 -3.515625 L 3.4375 -3.515625 L 3.40625 -3.828125 C 3.382812 -3.992188 3.34375 -4.117188 3.28125 -4.203125 C 3.21875 -4.285156 3.117188 -4.328125 2.984375 -4.328125 L 1.859375 -4.328125 L 1.859375 -2.671875 L 3.4375 -2.671875 L 3.4375 -2.28125 L 1.859375 -2.28125 Z M 1.859375 -0.40625 "/></g></g></g><g fill="#737373" fill-opacity="1"><g transform="translate(203.929786, 54.096197)"><g><path d="M 4.015625 0 L 4.015625 -0.359375 L 4.078125 -0.359375 C 4.140625 -0.359375 4.195312 -0.359375 4.25 -0.359375 C 4.3125 -0.367188 4.359375 -0.382812 4.390625 -0.40625 C 4.421875 -0.4375 4.445312 -0.476562 4.46875 -0.53125 C 4.488281 -0.582031 4.5 -0.644531 4.5 -0.71875 L 4.5 -4.078125 L 3.15625 0 L 2.703125 0 L 1.296875 -4.078125 L 1.296875 -0.78125 C 1.296875 -0.6875 1.304688 -0.609375 1.328125 -0.546875 C 1.359375 -0.492188 1.394531 -0.453125 1.4375 -0.421875 C 1.476562 -0.390625 1.523438 -0.367188 1.578125 -0.359375 C 1.640625 -0.359375 1.710938 -0.359375 1.796875 -0.359375 L 1.828125 -0.359375 L 1.828125 0 L 0.1875 0 L 0.1875 -0.359375 L 0.46875 -0.359375 C 0.507812 -0.359375 0.550781 -0.359375 0.59375 -0.359375 C 0.632812 -0.367188 0.671875 -0.382812 0.703125 -0.40625 C 0.734375 -0.4375 0.753906 -0.476562 0.765625 -0.53125 C 0.785156 -0.59375 0.796875 -0.664062 0.796875 -0.75 L 0.796875 -3.984375 C 0.796875 -4.078125 0.785156 -4.148438 0.765625 -4.203125 C 0.753906 -4.253906 0.734375 -4.289062 0.703125 -4.3125 C 0.671875 -4.34375 0.632812 -4.363281 0.59375 -4.375 C 0.550781 -4.382812 0.507812 -4.390625 0.46875 -4.390625 L 0.1875 -4.390625 L 0.1875 -4.734375 L 2.09375 -4.734375 L 3.203125 -1.53125 L 4.25 -4.734375 L 6.140625 -4.734375 L 6.140625 -4.390625 L 5.859375 -4.390625 C 5.804688 -4.390625 5.757812 -4.382812 5.71875 -4.375 C 5.675781 -4.363281 5.640625 -4.34375 5.609375 -4.3125 C 5.585938 -4.28125 5.566406 -4.238281 5.546875 -4.1875 C 5.523438 -4.132812 5.515625 -4.054688 5.515625 -3.953125 L 5.515625 -0.78125 C 5.515625 -0.6875 5.523438 -0.609375 5.546875 -0.546875 C 5.566406 -0.492188 5.585938 -0.453125 5.609375 -0.421875 C 5.640625 -0.390625 5.675781 -0.367188 5.71875 -0.359375 C 5.757812 -0.359375 5.804688 -0.359375 5.859375 -0.359375 L 6.140625 -0.359375 L 6.140625 0 Z M 4.015625 0 "/></g></g></g></svg>